STARTFONT 2.3
FONT -FontForge-Indie Flower-Book-R-Normal--9-90-72-72-P-41-ISO10646-1
SIZE 9 72 72  4
FONTBOUNDINGBOX 12 14 -2 -5
COMMENT "Generated by fontforge, http://fontforge.sourceforge.net"
COMMENT "Copyright (c) 2010, Kimberly Geswein (kimberlygeswein.com)"
STARTPROPERTIES 40
FOUNDRY "FontForge"
FAMILY_NAME "Indie Flower"
WEIGHT_NAME "Book"
SLANT "R"
SETWIDTH_NAME "Normal"
ADD_STYLE_NAME ""
PIXEL_SIZE 9
POINT_SIZE 90
RESOLUTION_X 72
RESOLUTION_Y 72
SPACING "P"
AVERAGE_WIDTH 41
CHARSET_REGISTRY "ISO10646"
CHARSET_ENCODING "1"
FONTNAME_REGISTRY ""
CHARSET_COLLECTIONS "ISO8859-2 ISO8859-9 ISO8859-4 ISO10646-1"
BITS_PER_PIXEL 4
FONT_NAME "IndieFlower"
FACE_NAME "Indie Flower"
COPYRIGHT "Copyright (c) 2010, Kimberly Geswein (kimberlygeswein.com)"
FONT_VERSION "1.001 2010"
FONT_ASCENT 7
FONT_DESCENT 2
UNDERLINE_POSITION -1
UNDERLINE_THICKNESS 1
X_HEIGHT 3
CAP_HEIGHT 4
RAW_ASCENT 799
RAW_DESCENT 200
NORM_SPACE 3
RELATIVE_WEIGHT 40
RELATIVE_SETWIDTH 50
SUPERSCRIPT_X 0
SUPERSCRIPT_Y 4
SUPERSCRIPT_SIZE 5
SUBSCRIPT_X 0
SUBSCRIPT_Y 1
SUBSCRIPT_SIZE 5
AVG_LOWERCASE_WIDTH 41
AVG_UPPERCASE_WIDTH 48
ENDPROPERTIES
CHARS 356
STARTCHAR space
ENCODING 32
SWIDTH 375 0
DWIDTH 3 0
BBX 1 1 0 0
BITMAP
00
ENDCHAR
STARTCHAR exclam
ENCODING 33
SWIDTH 149 0
DWIDTH 1 0
BBX 2 8 0 0
BITMAP
30
60
70
70
70
50
00
A1
ENDCHAR
STARTCHAR quotedbl
ENCODING 34
SWIDTH 234 0
DWIDTH 2 0
BBX 2 4 0 4
BITMAP
01
67
88
34
ENDCHAR
STARTCHAR numbersign
ENCODING 35
SWIDTH 768 0
DWIDTH 7 0
BBX 7 5 0 0
BITMAP
00211000
00449410
7899A530
168BB540
00047000
ENDCHAR
STARTCHAR dollar
ENCODING 36
SWIDTH 581 0
DWIDTH 5 0
BBX 5 9 0 0
BITMAP
001000
006700
03CC20
078500
00BA00
007870
718570
17D680
00B710
ENDCHAR
STARTCHAR percent
ENCODING 37
SWIDTH 636 0
DWIDTH 6 0
BBX 6 6 0 0
BITMAP
000020
782340
845600
247282
036717
070781
ENDCHAR
STARTCHAR ampersand
ENCODING 38
SWIDTH 457 0
DWIDTH 4 0
BBX 4 7 0 0
BITMAP
0200
0A50
0B40
0A37
4981
71C0
9832
ENDCHAR
STARTCHAR quotesingle
ENCODING 39
SWIDTH 102 0
DWIDTH 1 0
BBX 1 3 0 4
BITMAP
30
80
40
ENDCHAR
STARTCHAR parenleft
ENCODING 40
SWIDTH 421 0
DWIDTH 4 0
BBX 4 7 0 -1
BITMAP
0011
0473
2600
8000
8000
6510
0420
ENDCHAR
STARTCHAR parenright
ENCODING 41
SWIDTH 290 0
DWIDTH 3 0
BBX 3 7 0 -1
BITMAP
3100
1A00
0450
0260
0710
5700
5000
ENDCHAR
STARTCHAR asterisk
ENCODING 42
SWIDTH 412 0
DWIDTH 4 0
BBX 4 4 0 2
BITMAP
1013
4DC1
7BC0
3091
ENDCHAR
STARTCHAR plus
ENCODING 43
SWIDTH 459 0
DWIDTH 4 0
BBX 4 4 0 0
BITMAP
0500
0763
6884
0250
ENDCHAR
STARTCHAR comma
ENCODING 44
SWIDTH 130 0
DWIDTH 1 0
BBX 1 4 0 -2
BITMAP
20
80
80
40
ENDCHAR
STARTCHAR hyphen
ENCODING 45
SWIDTH 375 0
DWIDTH 3 0
BBX 3 1 0 2
BITMAP
6880
ENDCHAR
STARTCHAR period
ENCODING 46
SWIDTH 204 0
DWIDTH 2 0
BBX 2 2 0 0
BITMAP
44
77
ENDCHAR
STARTCHAR slash
ENCODING 47
SWIDTH 309 0
DWIDTH 3 0
BBX 3 7 0 0
BITMAP
0040
0160
0520
0800
1700
7200
7000
ENDCHAR
STARTCHAR zero
ENCODING 48
SWIDTH 430 0
DWIDTH 4 0
BBX 4 4 0 0
BITMAP
28A1
7017
6017
3892
ENDCHAR
STARTCHAR one
ENCODING 49
SWIDTH 318 0
DWIDTH 3 0
BBX 3 6 0 0
BITMAP
0020
0080
0880
7860
1530
0510
ENDCHAR
STARTCHAR two
ENCODING 50
SWIDTH 497 0
DWIDTH 4 0
BBX 5 5 0 0
BITMAP
018500
011800
000800
422600
8CB910
ENDCHAR
STARTCHAR three
ENCODING 51
SWIDTH 430 0
DWIDTH 4 0
BBX 4 5 0 0
BITMAP
6760
0280
2A91
4017
3885
ENDCHAR
STARTCHAR four
ENCODING 52
SWIDTH 412 0
DWIDTH 4 0
BBX 4 6 0 0
BITMAP
2000
8000
7017
82B5
2865
0026
ENDCHAR
STARTCHAR five
ENCODING 53
SWIDTH 571 0
DWIDTH 5 0
BBX 5 6 0 0
BITMAP
029860
071000
088300
000620
400350
599910
ENDCHAR
STARTCHAR six
ENCODING 54
SWIDTH 440 0
DWIDTH 4 0
BBX 4 6 0 0
BITMAP
0033
0743
5300
A774
7008
5A94
ENDCHAR
STARTCHAR seven
ENCODING 55
SWIDTH 412 0
DWIDTH 4 0
BBX 4 5 0 0
BITMAP
5670
0070
27C4
0260
0530
ENDCHAR
STARTCHAR eight
ENCODING 56
SWIDTH 375 0
DWIDTH 3 0
BBX 4 6 0 0
BITMAP
0200
7770
7630
3A30
8071
2781
ENDCHAR
STARTCHAR nine
ENCODING 57
SWIDTH 300 0
DWIDTH 3 0
BBX 3 5 0 0
BITMAP
7650
8280
3760
0250
0250
ENDCHAR
STARTCHAR colon
ENCODING 58
SWIDTH 84 0
DWIDTH 1 0
BBX 1 3 0 0
BITMAP
40
00
20
ENDCHAR
STARTCHAR semicolon
ENCODING 59
SWIDTH 128 0
DWIDTH 1 0
BBX 2 6 -1 -2
BITMAP
04
02
01
07
09
14
ENDCHAR
STARTCHAR less
ENCODING 60
SWIDTH 487 0
DWIDTH 4 0
BBX 4 4 0 0
BITMAP
0016
0381
6500
5886
ENDCHAR
STARTCHAR equal
ENCODING 61
SWIDTH 524 0
DWIDTH 5 0
BBX 5 3 0 1
BITMAP
477720
111010
588810
ENDCHAR
STARTCHAR greater
ENCODING 62
SWIDTH 403 0
DWIDTH 4 0
BBX 4 5 0 0
BITMAP
1000
5841
0077
0580
6500
ENDCHAR
STARTCHAR question
ENCODING 63
SWIDTH 272 0
DWIDTH 2 0
BBX 3 8 0 0
BITMAP
7700
0530
0720
1A00
4810
0300
0000
0310
ENDCHAR
STARTCHAR at
ENCODING 64
SWIDTH 815 0
DWIDTH 7 0
BBX 8 8 0 0
BITMAP
04878400
35000460
60167280
50703561
60608380
53878840
08210000
00787850
ENDCHAR
STARTCHAR A
ENCODING 65
SWIDTH 562 0
DWIDTH 5 0
BBX 5 7 0 0
BITMAP
067500
420610
500160
600080
965690
700080
520080
ENDCHAR
STARTCHAR B
ENCODING 66
SWIDTH 741 0
DWIDTH 7 0
BBX 7 7 0 0
BITMAP
01310000
59966000
01627000
008B8000
00802810
00800360
00988930
ENDCHAR
STARTCHAR C
ENCODING 67
SWIDTH 515 0
DWIDTH 5 0
BBX 5 6 0 0
BITMAP
028500
170200
600000
600000
700000
398820
ENDCHAR
STARTCHAR D
ENCODING 68
SWIDTH 741 0
DWIDTH 7 0
BBX 7 7 0 -1
BITMAP
58861000
10558400
00250810
00170250
00080630
00789700
00010000
ENDCHAR
STARTCHAR E
ENCODING 69
SWIDTH 524 0
DWIDTH 5 0
BBX 5 6 0 0
BITMAP
687600
800000
946500
821000
700000
79A910
ENDCHAR
STARTCHAR F
ENCODING 70
SWIDTH 514 0
DWIDTH 5 0
BBX 7 6 -1 0
BITMAP
03565200
14A33730
00700000
03C97000
00710000
00530000
ENDCHAR
STARTCHAR G
ENCODING 71
SWIDTH 571 0
DWIDTH 5 0
BBX 5 6 0 -1
BITMAP
004750
072000
616760
700080
3876A0
000050
ENDCHAR
STARTCHAR H
ENCODING 72
SWIDTH 524 0
DWIDTH 5 0
BBX 5 6 0 0
BITMAP
500420
700520
703A20
995530
630340
320260
ENDCHAR
STARTCHAR I
ENCODING 73
SWIDTH 167 0
DWIDTH 2 0
BBX 2 5 0 0
BITMAP
60
70
61
43
25
ENDCHAR
STARTCHAR J
ENCODING 74
SWIDTH 439 0
DWIDTH 4 0
BBX 4 7 0 0
BITMAP
0011
0016
0008
1008
7007
2507
0386
ENDCHAR
STARTCHAR K
ENCODING 75
SWIDTH 468 0
DWIDTH 4 0
BBX 4 6 0 0
BITMAP
1010
6370
7800
9400
7750
7048
ENDCHAR
STARTCHAR L
ENCODING 76
SWIDTH 346 0
DWIDTH 3 0
BBX 3 5 0 0
BITMAP
5000
8000
8000
7000
6970
ENDCHAR
STARTCHAR M
ENCODING 77
SWIDTH 534 0
DWIDTH 5 0
BBX 5 6 0 0
BITMAP
400210
840A30
779B20
710440
710360
500180
ENDCHAR
STARTCHAR N
ENCODING 78
SWIDTH 609 0
DWIDTH 5 0
BBX 6 5 0 0
BITMAP
600130
9200A0
970072
763053
807970
ENDCHAR
STARTCHAR O
ENCODING 79
SWIDTH 609 0
DWIDTH 5 0
BBX 6 5 0 0
BITMAP
043000
645820
600090
710062
197760
ENDCHAR
STARTCHAR P
ENCODING 80
SWIDTH 627 0
DWIDTH 6 0
BBX 6 6 0 0
BITMAP
255200
624691
006026
009582
009400
006000
ENDCHAR
STARTCHAR Q
ENCODING 81
SWIDTH 642 0
DWIDTH 6 0
BBX 6 6 0 -1
BITMAP
178500
710970
700035
712616
089DB1
000046
ENDCHAR
STARTCHAR R
ENCODING 82
SWIDTH 579 0
DWIDTH 5 0
BBX 5 7 0 -1
BITMAP
578600
420370
084860
0B5100
078100
051830
000040
ENDCHAR
STARTCHAR S
ENCODING 83
SWIDTH 627 0
DWIDTH 6 0
BBX 6 7 0 -1
BITMAP
015510
071160
065000
002850
800054
277782
000100
ENDCHAR
STARTCHAR T
ENCODING 84
SWIDTH 581 0
DWIDTH 5 0
BBX 6 6 0 0
BITMAP
221000
469977
002500
001700
000800
000900
ENDCHAR
STARTCHAR U
ENCODING 85
SWIDTH 571 0
DWIDTH 5 0
BBX 5 5 0 0
BITMAP
600410
600530
600260
6104B0
199560
ENDCHAR
STARTCHAR V
ENCODING 86
SWIDTH 421 0
DWIDTH 4 0
BBX 4 5 0 0
BITMAP
5004
8227
2944
0981
0290
ENDCHAR
STARTCHAR W
ENCODING 87
SWIDTH 703 0
DWIDTH 6 0
BBX 7 5 0 0
BITMAP
20000200
80000A00
80500810
80950610
39579700
ENDCHAR
STARTCHAR X
ENCODING 88
SWIDTH 534 0
DWIDTH 5 0
BBX 5 6 0 -1
BITMAP
220130
082710
05A000
189100
711700
300000
ENDCHAR
STARTCHAR Y
ENCODING 89
SWIDTH 403 0
DWIDTH 4 0
BBX 4 6 0 0
BITMAP
5003
6435
06C1
0080
0250
0340
ENDCHAR
STARTCHAR Z
ENCODING 90
SWIDTH 571 0
DWIDTH 5 0
BBX 5 6 0 0
BITMAP
576000
102600
001700
07C940
016000
069980
ENDCHAR
STARTCHAR bracketleft
ENCODING 91
SWIDTH 477 0
DWIDTH 4 0
BBX 5 8 0 -1
BITMAP
002410
686200
800000
620000
240000
060000
060000
097760
ENDCHAR
STARTCHAR backslash
ENCODING 92
SWIDTH 430 0
DWIDTH 4 0
BBX 4 5 0 0
BITMAP
6000
3800
0660
0092
0008
ENDCHAR
STARTCHAR bracketright
ENCODING 93
SWIDTH 430 0
DWIDTH 4 0
BBX 4 9 0 -1
BITMAP
5630
0392
0026
0006
0006
0006
0007
0008
4AA8
ENDCHAR
STARTCHAR asciicircum
ENCODING 94
SWIDTH 375 0
DWIDTH 3 0
BBX 3 3 0 4
BITMAP
0410
2990
1020
ENDCHAR
STARTCHAR underscore
ENCODING 95
SWIDTH 656 0
DWIDTH 6 0
BBX 6 1 0 0
BITMAP
478897
ENDCHAR
STARTCHAR grave
ENCODING 96
SWIDTH 172 0
DWIDTH 2 0
BBX 2 1 0 4
BITMAP
62
ENDCHAR
STARTCHAR a
ENCODING 97
SWIDTH 505 0
DWIDTH 5 0
BBX 5 5 0 0
BITMAP
044000
014600
387C10
700630
589820
ENDCHAR
STARTCHAR b
ENCODING 98
SWIDTH 497 0
DWIDTH 4 0
BBX 5 6 0 0
BITMAP
500000
800000
700000
798600
620530
1A8910
ENDCHAR
STARTCHAR c
ENCODING 99
SWIDTH 449 0
DWIDTH 4 0
BBX 4 4 0 0
BITMAP
3781
8010
8000
4975
ENDCHAR
STARTCHAR d
ENCODING 100
SWIDTH 524 0
DWIDTH 5 0
BBX 5 7 0 0
BITMAP
000700
000C00
000A10
4B9A30
900A40
801C60
499240
ENDCHAR
STARTCHAR e
ENCODING 101
SWIDTH 515 0
DWIDTH 5 0
BBX 5 5 0 0
BITMAP
067000
714400
868100
710000
188710
ENDCHAR
STARTCHAR f
ENCODING 102
SWIDTH 376 0
DWIDTH 3 0
BBX 4 7 0 0
BITMAP
0141
0839
1500
2600
7C81
0810
0280
ENDCHAR
STARTCHAR g
ENCODING 103
SWIDTH 366 0
DWIDTH 3 0
BBX 6 9 -2 -5
BITMAP
000650
007170
008092
0059B3
000053
000034
250043
078491
002530
ENDCHAR
STARTCHAR h
ENCODING 104
SWIDTH 427 0
DWIDTH 4 0
BBX 4 7 0 0
BITMAP
1000
7000
8000
9990
7025
7117
5216
ENDCHAR
STARTCHAR i
ENCODING 105
SWIDTH 174 0
DWIDTH 2 0
BBX 2 6 0 0
BITMAP
30
10
60
61
54
35
ENDCHAR
STARTCHAR j
ENCODING 106
SWIDTH 200 0
DWIDTH 2 0
BBX 3 10 -1 -4
BITMAP
0100
0300
0210
0360
0090
0090
0090
7080
8270
08A0
ENDCHAR
STARTCHAR k
ENCODING 107
SWIDTH 403 0
DWIDTH 4 0
BBX 4 6 0 0
BITMAP
2000
7000
7270
8700
7600
7594
ENDCHAR
STARTCHAR l
ENCODING 108
SWIDTH 120 0
DWIDTH 1 0
BBX 1 5 0 0
BITMAP
70
80
90
90
70
ENDCHAR
STARTCHAR m
ENCODING 109
SWIDTH 750 0
DWIDTH 7 0
BBX 7 4 0 0
BITMAP
48429700
A17A0540
80180170
60030160
ENDCHAR
STARTCHAR n
ENCODING 110
SWIDTH 459 0
DWIDTH 4 0
BBX 4 4 0 0
BITMAP
5892
A008
9008
5208
ENDCHAR
STARTCHAR o
ENCODING 111
SWIDTH 487 0
DWIDTH 4 0
BBX 5 4 0 0
BITMAP
289700
700710
700900
489600
ENDCHAR
STARTCHAR p
ENCODING 112
SWIDTH 520 0
DWIDTH 5 0
BBX 5 8 0 -4
BITMAP
001000
496920
B10270
B68920
830000
550000
170000
010000
ENDCHAR
STARTCHAR q
ENCODING 113
SWIDTH 412 0
DWIDTH 4 0
BBX 4 8 0 -3
BITMAP
0460
5345
6054
7063
39C2
0052
0054
0024
ENDCHAR
STARTCHAR r
ENCODING 114
SWIDTH 346 0
DWIDTH 3 0
BBX 3 4 0 0
BITMAP
8780
8000
8000
4300
ENDCHAR
STARTCHAR s
ENCODING 115
SWIDTH 514 0
DWIDTH 5 0
BBX 5 5 0 0
BITMAP
010000
678100
565200
102830
587920
ENDCHAR
STARTCHAR t
ENCODING 116
SWIDTH 328 0
DWIDTH 3 0
BBX 3 6 0 0
BITMAP
0800
0900
6C60
0900
0900
0600
ENDCHAR
STARTCHAR u
ENCODING 117
SWIDTH 501 0
DWIDTH 5 0
BBX 5 5 0 -1
BITMAP
600300
700900
701C00
298630
000010
ENDCHAR
STARTCHAR v
ENCODING 118
SWIDTH 389 0
DWIDTH 4 0
BBX 4 4 0 0
BITMAP
2000
8162
2680
0840
ENDCHAR
STARTCHAR w
ENCODING 119
SWIDTH 656 0
DWIDTH 6 0
BBX 6 4 0 0
BITMAP
500010
703316
705608
399894
ENDCHAR
STARTCHAR x
ENCODING 120
SWIDTH 448 0
DWIDTH 4 0
BBX 4 5 0 -1
BITMAP
3004
6673
0B60
4175
0003
ENDCHAR
STARTCHAR y
ENCODING 121
SWIDTH 487 0
DWIDTH 4 0
BBX 5 9 0 -5
BITMAP
400500
700700
610920
078730
000330
000430
300610
394800
015100
ENDCHAR
STARTCHAR z
ENCODING 122
SWIDTH 459 0
DWIDTH 4 0
BBX 4 5 0 0
BITMAP
5760
2070
47B2
1A10
2C97
ENDCHAR
STARTCHAR braceleft
ENCODING 123
SWIDTH 393 0
DWIDTH 4 0
BBX 4 9 0 -1
BITMAP
2872
8000
7000
3940
48A0
1190
2800
6200
1973
ENDCHAR
STARTCHAR bar
ENCODING 124
SWIDTH 149 0
DWIDTH 1 0
BBX 2 6 0 0
BITMAP
40
60
60
61
61
52
ENDCHAR
STARTCHAR braceright
ENCODING 125
SWIDTH 440 0
DWIDTH 4 0
BBX 4 11 0 -2
BITMAP
5740
5073
0081
0720
0A71
0910
0450
0052
0007
1007
8784
ENDCHAR
STARTCHAR asciitilde
ENCODING 126
SWIDTH 402 0
DWIDTH 4 0
BBX 4 2 0 3
BITMAP
6672
2010
ENDCHAR
STARTCHAR nonbreakingspace
ENCODING 160
SWIDTH 375 0
DWIDTH 3 0
BBX 1 1 0 0
BITMAP
00
ENDCHAR
STARTCHAR exclamdown
ENCODING 161
SWIDTH 149 0
DWIDTH 1 0
BBX 2 6 0 0
BITMAP
71
10
70
70
60
60
ENDCHAR
STARTCHAR cent
ENCODING 162
SWIDTH 449 0
DWIDTH 4 0
BBX 4 6 0 -1
BITMAP
0320
38B1
8171
8170
5AB4
0030
ENDCHAR
STARTCHAR sterling
ENCODING 163
SWIDTH 758 0
DWIDTH 7 0
BBX 7 7 0 0
BITMAP
00005710
00044260
00071000
058C7300
00230000
22810000
BE885000
ENDCHAR
STARTCHAR currency
ENCODING 164
SWIDTH 618 0
DWIDTH 6 0
BBX 5 5 0 0
BITMAP
525650
1B4480
160060
0A3660
233250
ENDCHAR
STARTCHAR yen
ENCODING 165
SWIDTH 389 0
DWIDTH 4 0
BBX 4 7 0 0
BITMAP
5003
4454
0790
0640
4A70
4B70
0900
ENDCHAR
STARTCHAR brokenbar
ENCODING 166
SWIDTH 117 0
DWIDTH 1 0
BBX 1 6 0 0
BITMAP
10
70
70
60
80
70
ENDCHAR
STARTCHAR section
ENCODING 167
SWIDTH 514 0
DWIDTH 5 0
BBX 5 6 0 0
BITMAP
388600
452300
776740
675760
113830
387920
ENDCHAR
STARTCHAR dieresis
ENCODING 168
SWIDTH 397 0
DWIDTH 4 0
BBX 3 2 0 3
BITMAP
3480
0010
ENDCHAR
STARTCHAR copyright
ENCODING 169
SWIDTH 667 0
DWIDTH 6 0
BBX 6 5 0 0
BITMAP
077960
627855
761107
667528
198A82
ENDCHAR
STARTCHAR ordfeminine
ENCODING 170
SWIDTH 266 0
DWIDTH 2 0
BBX 3 3 0 2
BITMAP
1200
3700
5620
ENDCHAR
STARTCHAR guillemotleft
ENCODING 171
SWIDTH 755 0
DWIDTH 7 0
BBX 7 5 0 0
BITMAP
00000110
00165700
03993000
65896300
58862400
ENDCHAR
STARTCHAR logicalnot
ENCODING 172
SWIDTH 369 0
DWIDTH 3 0
BBX 4 2 0 2
BITMAP
5781
0041
ENDCHAR
STARTCHAR hyphen_
ENCODING 173
SWIDTH 375 0
DWIDTH 3 0
BBX 3 1 0 2
BITMAP
6880
ENDCHAR
STARTCHAR registered
ENCODING 174
SWIDTH 708 0
DWIDTH 6 0
BBX 6 6 0 0
BITMAP
002100
176880
667676
70B627
647728
078781
ENDCHAR
STARTCHAR macron
ENCODING 175
SWIDTH 287 0
DWIDTH 3 0
BBX 3 1 0 4
BITMAP
5840
ENDCHAR
STARTCHAR degree
ENCODING 176
SWIDTH 254 0
DWIDTH 2 0
BBX 2 3 0 3
BITMAP
35
34
56
ENDCHAR
STARTCHAR plusminus
ENCODING 177
SWIDTH 459 0
DWIDTH 4 0
BBX 4 5 0 0
BITMAP
0200
0620
6AC7
0270
3786
ENDCHAR
STARTCHAR twosuperior
ENCODING 178
SWIDTH 296 0
DWIDTH 3 0
BBX 3 3 0 2
BITMAP
0600
0310
8810
ENDCHAR
STARTCHAR threesuperior
ENCODING 179
SWIDTH 204 0
DWIDTH 2 0
BBX 2 3 0 2
BITMAP
44
54
56
ENDCHAR
STARTCHAR acute
ENCODING 180
SWIDTH 180 0
DWIDTH 2 0
BBX 2 2 0 3
BITMAP
53
30
ENDCHAR
STARTCHAR mu
ENCODING 181
SWIDTH 501 0
DWIDTH 5 0
BBX 5 6 0 -1
BITMAP
100000
700600
800900
C23D00
888540
400000
ENDCHAR
STARTCHAR paragraph
ENCODING 182
SWIDTH 413 0
DWIDTH 4 0
BBX 4 6 0 -1
BITMAP
2891
BFC4
7A96
0196
0095
0011
ENDCHAR
STARTCHAR periodcentered
ENCODING 183
SWIDTH 212 0
DWIDTH 2 0
BBX 2 2 0 1
BITMAP
44
32
ENDCHAR
STARTCHAR cedilla
ENCODING 184
SWIDTH 445 0
DWIDTH 4 0
BBX 3 4 1 -3
BITMAP
1000
6200
1460
3740
ENDCHAR
STARTCHAR onesuperior
ENCODING 185
SWIDTH 197 0
DWIDTH 2 0
BBX 2 4 0 2
BITMAP
02
27
56
14
ENDCHAR
STARTCHAR ordmasculine
ENCODING 186
SWIDTH 254 0
DWIDTH 2 0
BBX 2 3 0 3
BITMAP
35
34
56
ENDCHAR
STARTCHAR guillemotright
ENCODING 187
SWIDTH 659 0
DWIDTH 6 0
BBX 6 5 0 0
BITMAP
103000
587972
007766
058750
656200
ENDCHAR
STARTCHAR onequarter
ENCODING 188
SWIDTH 626 0
DWIDTH 6 0
BBX 6 7 0 0
BITMAP
023000
085000
576000
056200
036311
0626A0
050151
ENDCHAR
STARTCHAR onehalf
ENCODING 189
SWIDTH 566 0
DWIDTH 5 0
BBX 5 7 0 0
BITMAP
012200
065000
3A6000
476420
084150
060050
069950
ENDCHAR
STARTCHAR threequarters
ENCODING 190
SWIDTH 566 0
DWIDTH 5 0
BBX 5 7 0 -1
BITMAP
002200
455000
466300
568230
015790
051050
050000
ENDCHAR
STARTCHAR questiondown
ENCODING 191
SWIDTH 272 0
DWIDTH 2 0
BBX 3 7 0 0
BITMAP
4000
0000
4600
1900
8200
8000
3740
ENDCHAR
STARTCHAR Agrave
ENCODING 192
SWIDTH 562 0
DWIDTH 5 0
BBX 5 8 0 0
BITMAP
008000
067500
420610
500160
600080
965690
700080
520080
ENDCHAR
STARTCHAR Aacute
ENCODING 193
SWIDTH 562 0
DWIDTH 5 0
BBX 5 8 0 0
BITMAP
034000
097500
420610
500160
600080
965690
700080
520080
ENDCHAR
STARTCHAR Acircumflex
ENCODING 194
SWIDTH 562 0
DWIDTH 5 0
BBX 5 9 0 0
BITMAP
005000
07A300
087600
420610
500160
600080
965690
700080
520080
ENDCHAR
STARTCHAR Atilde
ENCODING 195
SWIDTH 562 0
DWIDTH 5 0
BBX 5 8 0 0
BITMAP
276600
177500
420610
500160
600080
965690
700080
520080
ENDCHAR
STARTCHAR Adieresis
ENCODING 196
SWIDTH 562 0
DWIDTH 5 0
BBX 5 8 0 0
BITMAP
074500
077500
420610
500160
600080
965690
700080
520080
ENDCHAR
STARTCHAR Aring
ENCODING 197
SWIDTH 562 0
DWIDTH 5 0
BBX 5 9 0 0
BITMAP
002000
056100
079500
420610
500160
600080
965690
700080
520080
ENDCHAR
STARTCHAR AE
ENCODING 198
SWIDTH 960 0
DWIDTH 9 0
BBX 9 7 0 0
BITMAP
0675000000
4206687610
5001D00000
6000D46600
9656B21000
7000800000
5200A8AA30
ENDCHAR
STARTCHAR Ccedilla
ENCODING 199
SWIDTH 515 0
DWIDTH 5 0
BBX 5 9 0 -3
BITMAP
028500
170200
600000
600000
700000
3A8820
071000
025500
056300
ENDCHAR
STARTCHAR Egrave
ENCODING 200
SWIDTH 524 0
DWIDTH 5 0
BBX 5 7 0 0
BITMAP
027000
687600
800000
946500
821000
700000
79A910
ENDCHAR
STARTCHAR Eacute
ENCODING 201
SWIDTH 524 0
DWIDTH 5 0
BBX 5 7 0 0
BITMAP
026000
6A7600
800000
946500
821000
700000
79A910
ENDCHAR
STARTCHAR Ecircumflex
ENCODING 202
SWIDTH 524 0
DWIDTH 5 0
BBX 5 8 0 0
BITMAP
005000
05A500
697800
800000
946500
821000
700000
79A910
ENDCHAR
STARTCHAR Edieresis
ENCODING 203
SWIDTH 524 0
DWIDTH 5 0
BBX 5 7 0 0
BITMAP
074400
697700
800000
946500
821000
700000
79A910
ENDCHAR
STARTCHAR Igrave
ENCODING 204
SWIDTH 167 0
DWIDTH 2 0
BBX 3 7 -1 0
BITMAP
1800
0000
0600
0700
0610
0430
0250
ENDCHAR
STARTCHAR Iacute
ENCODING 205
SWIDTH 167 0
DWIDTH 2 0
BBX 3 7 -1 0
BITMAP
0710
1200
0600
0700
0610
0430
0250
ENDCHAR
STARTCHAR Icircumflex
ENCODING 206
SWIDTH 167 0
DWIDTH 2 0
BBX 3 8 -1 0
BITMAP
0420
19A0
1020
0600
0700
0610
0430
0250
ENDCHAR
STARTCHAR Idieresis
ENCODING 207
SWIDTH 167 0
DWIDTH 2 0
BBX 3 6 -1 0
BITMAP
8530
1600
0700
0610
0430
0250
ENDCHAR
STARTCHAR Eth
ENCODING 208
SWIDTH 741 0
DWIDTH 7 0
BBX 7 7 0 -1
BITMAP
58861000
10658400
00573810
00593250
00080630
00789700
00010000
ENDCHAR
STARTCHAR Ntilde
ENCODING 209
SWIDTH 609 0
DWIDTH 5 0
BBX 6 6 0 0
BITMAP
066720
620130
9200A0
970072
763053
807970
ENDCHAR
STARTCHAR Ograve
ENCODING 210
SWIDTH 609 0
DWIDTH 5 0
BBX 6 6 0 0
BITMAP
005300
043000
645820
600090
710062
197760
ENDCHAR
STARTCHAR Oacute
ENCODING 211
SWIDTH 609 0
DWIDTH 5 0
BBX 6 6 0 0
BITMAP
006100
045000
645820
600090
710062
197760
ENDCHAR
STARTCHAR Ocircumflex
ENCODING 212
SWIDTH 609 0
DWIDTH 5 0
BBX 6 7 0 0
BITMAP
023000
19B100
154100
645820
600090
710062
197760
ENDCHAR
STARTCHAR Otilde
ENCODING 213
SWIDTH 609 0
DWIDTH 5 0
BBX 6 6 0 0
BITMAP
276600
153000
645820
600090
710062
197760
ENDCHAR
STARTCHAR Odieresis
ENCODING 214
SWIDTH 609 0
DWIDTH 5 0
BBX 6 6 0 0
BITMAP
044800
043100
645820
600090
710062
197760
ENDCHAR
STARTCHAR multiply
ENCODING 215
SWIDTH 448 0
DWIDTH 4 0
BBX 3 3 0 0
BITMAP
4570
0B60
2230
ENDCHAR
STARTCHAR Oslash
ENCODING 216
SWIDTH 609 0
DWIDTH 5 0
BBX 6 7 0 -1
BITMAP
000500
043600
649920
608090
737062
1C9760
070000
ENDCHAR
STARTCHAR Ugrave
ENCODING 217
SWIDTH 571 0
DWIDTH 5 0
BBX 5 6 0 0
BITMAP
007200
600410
600530
600260
6104B0
199560
ENDCHAR
STARTCHAR Uacute
ENCODING 218
SWIDTH 571 0
DWIDTH 5 0
BBX 5 6 0 0
BITMAP
007000
621410
600530
600260
6104B0
199560
ENDCHAR
STARTCHAR Ucircumflex
ENCODING 219
SWIDTH 571 0
DWIDTH 5 0
BBX 5 8 0 0
BITMAP
005000
039800
010200
600410
600530
600260
6104B0
199560
ENDCHAR
STARTCHAR Udieresis
ENCODING 220
SWIDTH 571 0
DWIDTH 5 0
BBX 5 6 0 0
BITMAP
053700
610410
600530
600260
6104B0
199560
ENDCHAR
STARTCHAR Yacute
ENCODING 221
SWIDTH 403 0
DWIDTH 4 0
BBX 4 8 0 0
BITMAP
0170
0210
5003
6435
06C1
0080
0250
0340
ENDCHAR
STARTCHAR Thorn
ENCODING 222
SWIDTH 497 0
DWIDTH 4 0
BBX 5 8 0 -2
BITMAP
300000
800000
700000
798600
620530
6A8910
520000
110000
ENDCHAR
STARTCHAR germandbls
ENCODING 223
SWIDTH 590 0
DWIDTH 5 0
BBX 6 9 0 -2
BITMAP
130000
968200
905300
83C400
610460
420081
337760
550000
010000
ENDCHAR
STARTCHAR agrave
ENCODING 224
SWIDTH 505 0
DWIDTH 5 0
BBX 5 6 0 0
BITMAP
036000
045000
014600
387C10
700630
589820
ENDCHAR
STARTCHAR aacute
ENCODING 225
SWIDTH 505 0
DWIDTH 5 0
BBX 5 6 0 0
BITMAP
026000
074000
014600
387C10
700630
589820
ENDCHAR
STARTCHAR acircumflex
ENCODING 226
SWIDTH 505 0
DWIDTH 5 0
BBX 5 7 0 0
BITMAP
005000
06A400
054200
014600
387C10
700630
589820
ENDCHAR
STARTCHAR atilde
ENCODING 227
SWIDTH 505 0
DWIDTH 5 0
BBX 5 6 0 0
BITMAP
366500
245000
014600
387C10
700630
589820
ENDCHAR
STARTCHAR adieresis
ENCODING 228
SWIDTH 505 0
DWIDTH 5 0
BBX 5 6 0 0
BITMAP
074400
055000
014600
387C10
700630
589820
ENDCHAR
STARTCHAR aring
ENCODING 229
SWIDTH 505 0
DWIDTH 5 0
BBX 5 6 0 0
BITMAP
036000
069000
014600
387C10
700630
589820
ENDCHAR
STARTCHAR ae
ENCODING 230
SWIDTH 881 0
DWIDTH 8 0
BBX 8 6 0 -1
BITMAP
04402610
01477170
387D4560
70066200
58989763
00000220
ENDCHAR
STARTCHAR ccedilla
ENCODING 231
SWIDTH 449 0
DWIDTH 4 0
BBX 4 7 0 -3
BITMAP
3781
8011
8000
4975
0720
0245
0462
ENDCHAR
STARTCHAR egrave
ENCODING 232
SWIDTH 515 0
DWIDTH 5 0
BBX 5 6 0 0
BITMAP
054000
067000
714400
868100
710000
188710
ENDCHAR
STARTCHAR eacute
ENCODING 233
SWIDTH 515 0
DWIDTH 5 0
BBX 5 6 0 0
BITMAP
035000
097000
714400
868100
710000
188710
ENDCHAR
STARTCHAR ecircumflex
ENCODING 234
SWIDTH 515 0
DWIDTH 5 0
BBX 5 7 0 0
BITMAP
005000
06A500
087200
714400
868100
710000
188710
ENDCHAR
STARTCHAR edieresis
ENCODING 235
SWIDTH 515 0
DWIDTH 5 0
BBX 5 6 0 0
BITMAP
085200
077000
714400
868100
710000
188710
ENDCHAR
STARTCHAR igrave
ENCODING 236
SWIDTH 174 0
DWIDTH 2 0
BBX 2 6 0 0
BITMAP
30
42
60
61
54
35
ENDCHAR
STARTCHAR iacute
ENCODING 237
SWIDTH 174 0
DWIDTH 2 0
BBX 2 6 0 0
BITMAP
31
60
60
61
54
35
ENDCHAR
STARTCHAR icircumflex
ENCODING 238
SWIDTH 174 0
DWIDTH 2 0
BBX 3 7 -1 0
BITMAP
0320
19B0
1020
0600
0610
0540
0350
ENDCHAR
STARTCHAR idieresis
ENCODING 239
SWIDTH 174 0
DWIDTH 2 0
BBX 3 6 -1 0
BITMAP
1120
3370
0600
0610
0540
0350
ENDCHAR
STARTCHAR eth
ENCODING 240
SWIDTH 407 0
DWIDTH 4 0
BBX 4 6 0 -1
BITMAP
6712
08D4
2695
7007
6793
0110
ENDCHAR
STARTCHAR ntilde
ENCODING 241
SWIDTH 459 0
DWIDTH 4 0
BBX 4 6 0 0
BITMAP
5672
2010
5892
A008
9008
5208
ENDCHAR
STARTCHAR ograve
ENCODING 242
SWIDTH 487 0
DWIDTH 4 0
BBX 5 5 0 0
BITMAP
027000
289700
700710
700900
489600
ENDCHAR
STARTCHAR oacute
ENCODING 243
SWIDTH 487 0
DWIDTH 4 0
BBX 5 6 0 0
BITMAP
025000
030000
289700
700710
700900
489600
ENDCHAR
STARTCHAR ocircumflex
ENCODING 244
SWIDTH 487 0
DWIDTH 4 0
BBX 5 6 0 0
BITMAP
014000
08B200
299800
700710
700900
489600
ENDCHAR
STARTCHAR otilde
ENCODING 245
SWIDTH 487 0
DWIDTH 4 0
BBX 5 5 0 0
BITMAP
276500
38A700
700710
700900
489600
ENDCHAR
STARTCHAR odieresis
ENCODING 246
SWIDTH 487 0
DWIDTH 4 0
BBX 5 5 0 0
BITMAP
085300
28A700
700710
700900
489600
ENDCHAR
STARTCHAR divide
ENCODING 247
SWIDTH 335 0
DWIDTH 3 0
BBX 3 3 0 0
BITMAP
3930
2110
0200
ENDCHAR
STARTCHAR oslash
ENCODING 248
SWIDTH 487 0
DWIDTH 4 0
BBX 5 5 0 0
BITMAP
000100
17A700
719800
782810
7B9600
ENDCHAR
STARTCHAR ugrave
ENCODING 249
SWIDTH 501 0
DWIDTH 5 0
BBX 5 7 0 -1
BITMAP
062000
000000
600300
700900
701C00
298630
000010
ENDCHAR
STARTCHAR uacute
ENCODING 250
SWIDTH 501 0
DWIDTH 5 0
BBX 5 7 0 -1
BITMAP
026000
030000
600300
700900
701C00
298630
000010
ENDCHAR
STARTCHAR ucircumflex
ENCODING 251
SWIDTH 501 0
DWIDTH 5 0
BBX 5 8 0 -1
BITMAP
005000
06A400
020100
600300
700900
701C00
298630
000010
ENDCHAR
STARTCHAR udieresis
ENCODING 252
SWIDTH 501 0
DWIDTH 5 0
BBX 5 7 0 -1
BITMAP
076100
011000
600300
700900
701C00
298630
000010
ENDCHAR
STARTCHAR yacute
ENCODING 253
SWIDTH 487 0
DWIDTH 4 0
BBX 5 11 0 -5
BITMAP
035000
030000
400500
700700
610920
078730
000330
000430
300610
394800
015100
ENDCHAR
STARTCHAR thorn
ENCODING 254
SWIDTH 520 0
DWIDTH 5 0
BBX 5 7 0 -2
BITMAP
300000
625200
963730
930360
978710
800000
500000
ENDCHAR
STARTCHAR ydieresis
ENCODING 255
SWIDTH 487 0
DWIDTH 4 0
BBX 5 11 0 -5
BITMAP
076200
011000
400500
700700
610920
078730
000330
000430
300610
394800
015100
ENDCHAR
STARTCHAR Amacron
ENCODING 256
SWIDTH 562 0
DWIDTH 5 0
BBX 5 8 0 0
BITMAP
078300
067500
420610
500160
600080
965690
700080
520080
ENDCHAR
STARTCHAR amacron
ENCODING 257
SWIDTH 505 0
DWIDTH 5 0
BBX 5 6 0 0
BITMAP
078200
044000
014600
387C10
700630
589820
ENDCHAR
STARTCHAR Abreve
ENCODING 258
SWIDTH 562 0
DWIDTH 5 0
BBX 5 9 0 0
BITMAP
011300
005000
067500
420610
500160
600080
965690
700080
520080
ENDCHAR
STARTCHAR abreve
ENCODING 259
SWIDTH 505 0
DWIDTH 5 0
BBX 5 6 0 0
BITMAP
023000
068000
014600
387C10
700630
589820
ENDCHAR
STARTCHAR Aogonek
ENCODING 260
SWIDTH 562 0
DWIDTH 5 0
BBX 5 9 0 -2
BITMAP
067500
420610
500160
600080
965690
700080
520190
000810
000140
ENDCHAR
STARTCHAR aogonek
ENCODING 261
SWIDTH 505 0
DWIDTH 5 0
BBX 5 6 0 -1
BITMAP
044000
014600
387C10
700630
589820
006510
ENDCHAR
STARTCHAR Cacute
ENCODING 262
SWIDTH 515 0
DWIDTH 5 0
BBX 5 7 0 0
BITMAP
006100
03B500
170200
600000
600000
700000
398820
ENDCHAR
STARTCHAR cacute
ENCODING 263
SWIDTH 449 0
DWIDTH 4 0
BBX 4 6 0 0
BITMAP
0160
0200
3781
8010
8000
4975
ENDCHAR
STARTCHAR Ccircumflex
ENCODING 264
SWIDTH 515 0
DWIDTH 5 0
BBX 5 8 0 0
BITMAP
005000
06A500
048700
170200
600000
600000
700000
398820
ENDCHAR
STARTCHAR ccircumflex
ENCODING 265
SWIDTH 449 0
DWIDTH 4 0
BBX 4 7 0 0
BITMAP
0240
08B1
0111
3781
8010
8000
4975
ENDCHAR
STARTCHAR Cdotaccent
ENCODING 266
SWIDTH 515 0
DWIDTH 5 0
BBX 5 7 0 0
BITMAP
006000
028500
170200
600000
600000
700000
398820
ENDCHAR
STARTCHAR cdotaccent
ENCODING 267
SWIDTH 449 0
DWIDTH 4 0
BBX 4 5 0 0
BITMAP
0320
3781
8010
8000
4975
ENDCHAR
STARTCHAR Ccaron
ENCODING 268
SWIDTH 515 0
DWIDTH 5 0
BBX 5 8 0 0
BITMAP
022400
005300
028500
170200
600000
600000
700000
398820
ENDCHAR
STARTCHAR ccaron
ENCODING 269
SWIDTH 449 0
DWIDTH 4 0
BBX 4 6 0 0
BITMAP
0431
0350
3781
8010
8000
4975
ENDCHAR
STARTCHAR Dcaron
ENCODING 270
SWIDTH 741 0
DWIDTH 7 0
BBX 7 8 0 -1
BITMAP
00423000
588D1000
10558400
00250810
00170250
00080630
00789700
00010000
ENDCHAR
STARTCHAR dcaron
ENCODING 271
SWIDTH 582 0
DWIDTH 5 0
BBX 6 7 0 0
BITMAP
000730
000C71
000A41
4B9A30
900A40
801C60
499240
ENDCHAR
STARTCHAR Dcroat
ENCODING 272
SWIDTH 741 0
DWIDTH 7 0
BBX 7 7 0 -1
BITMAP
58861000
10558400
00250810
008B1250
00080630
00789700
00010000
ENDCHAR
STARTCHAR dcroat
ENCODING 273
SWIDTH 524 0
DWIDTH 5 0
BBX 5 7 0 0
BITMAP
000300
003C30
015B30
5B9A30
900A40
801C50
499240
ENDCHAR
STARTCHAR Emacron
ENCODING 274
SWIDTH 524 0
DWIDTH 5 0
BBX 5 7 0 0
BITMAP
078300
687600
800000
946500
821000
700000
79A910
ENDCHAR
STARTCHAR emacron
ENCODING 275
SWIDTH 515 0
DWIDTH 5 0
BBX 5 6 0 0
BITMAP
078300
067000
714400
868100
710000
188710
ENDCHAR
STARTCHAR Ebreve
ENCODING 276
SWIDTH 524 0
DWIDTH 5 0
BBX 5 8 0 0
BITMAP
023000
014000
687600
800000
946500
821000
700000
79A910
ENDCHAR
STARTCHAR ebreve
ENCODING 277
SWIDTH 515 0
DWIDTH 5 0
BBX 5 7 0 0
BITMAP
011200
005000
067000
714400
868100
710000
188710
ENDCHAR
STARTCHAR Edotaccent
ENCODING 278
SWIDTH 524 0
DWIDTH 5 0
BBX 5 7 0 0
BITMAP
015000
687600
800000
946500
821000
700000
79A910
ENDCHAR
STARTCHAR edotaccent
ENCODING 279
SWIDTH 515 0
DWIDTH 5 0
BBX 5 6 0 0
BITMAP
032000
067000
714400
868100
710000
188710
ENDCHAR
STARTCHAR Eogonek
ENCODING 280
SWIDTH 524 0
DWIDTH 5 0
BBX 5 8 0 -2
BITMAP
687600
800000
946500
821000
700000
79AA10
007200
001400
ENDCHAR
STARTCHAR eogonek
ENCODING 281
SWIDTH 515 0
DWIDTH 5 0
BBX 5 7 0 -2
BITMAP
067000
714400
868100
710000
189710
008100
001300
ENDCHAR
STARTCHAR Ecaron
ENCODING 282
SWIDTH 524 0
DWIDTH 5 0
BBX 5 7 0 0
BITMAP
032300
68E700
800000
946500
821000
700000
79A910
ENDCHAR
STARTCHAR ecaron
ENCODING 283
SWIDTH 515 0
DWIDTH 5 0
BBX 5 7 0 0
BITMAP
042300
017100
067000
714400
868100
710000
188710
ENDCHAR
STARTCHAR Gcircumflex
ENCODING 284
SWIDTH 571 0
DWIDTH 5 0
BBX 5 9 0 -1
BITMAP
000500
006A50
002020
004750
072000
616760
700080
3876A0
000050
ENDCHAR
STARTCHAR gcircumflex
ENCODING 285
SWIDTH 366 0
DWIDTH 3 0
BBX 6 12 -2 -5
BITMAP
000410
002990
001020
000650
007170
008092
0059B3
000053
000034
250043
078491
002530
ENDCHAR
STARTCHAR Gbreve
ENCODING 286
SWIDTH 571 0
DWIDTH 5 0
BBX 5 7 0 -1
BITMAP
011300
009850
072000
616760
700080
3876A0
000050
ENDCHAR
STARTCHAR gbreve
ENCODING 287
SWIDTH 366 0
DWIDTH 3 0
BBX 6 10 -2 -5
BITMAP
001130
000B60
007170
008092
0059B3
000053
000034
250043
078491
002530
ENDCHAR
STARTCHAR Gdotaccent
ENCODING 288
SWIDTH 571 0
DWIDTH 5 0
BBX 5 7 0 -1
BITMAP
001400
004750
072000
616760
700080
3876A0
000050
ENDCHAR
STARTCHAR gdotaccent
ENCODING 289
SWIDTH 366 0
DWIDTH 3 0
BBX 6 10 -2 -5
BITMAP
000600
000650
007170
008092
0059B3
000053
000034
250043
078491
002530
ENDCHAR
STARTCHAR Gcommaaccent
ENCODING 290
SWIDTH 571 0
DWIDTH 5 0
BBX 5 8 0 -3
BITMAP
004750
072000
616760
700080
3876A0
000050
008000
006000
ENDCHAR
STARTCHAR gcommaaccent
ENCODING 291
SWIDTH 366 0
DWIDTH 3 0
BBX 6 13 -2 -5
BITMAP
000300
000800
000400
000000
000650
007170
008092
0059B3
000053
000034
250043
078491
002530
ENDCHAR
STARTCHAR Hcircumflex
ENCODING 292
SWIDTH 524 0
DWIDTH 5 0
BBX 5 9 0 0
BITMAP
005000
06A500
020200
500420
700520
703A20
995530
630340
320260
ENDCHAR
STARTCHAR hcircumflex
ENCODING 293
SWIDTH 427 0
DWIDTH 4 0
BBX 4 8 0 0
BITMAP
0140
28B2
8111
8000
9990
7025
7117
5216
ENDCHAR
STARTCHAR hbar
ENCODING 295
SWIDTH 427 0
DWIDTH 4 0
BBX 5 7 -1 0
BITMAP
010000
070000
5C5000
099900
070250
071170
052160
ENDCHAR
STARTCHAR Itilde
ENCODING 296
SWIDTH 167 0
DWIDTH 2 0
BBX 4 6 -1 0
BITMAP
6672
2610
0700
0610
0430
0250
ENDCHAR
STARTCHAR itilde
ENCODING 297
SWIDTH 174 0
DWIDTH 2 0
BBX 4 6 -1 0
BITMAP
4674
1000
0600
0610
0540
0350
ENDCHAR
STARTCHAR imacron
ENCODING 299
SWIDTH 174 0
DWIDTH 2 0
BBX 3 6 -1 0
BITMAP
1650
1220
0600
0610
0540
0350
ENDCHAR
STARTCHAR Ibreve
ENCODING 300
SWIDTH 167 0
DWIDTH 2 0
BBX 2 7 0 0
BITMAP
23
42
60
70
61
43
25
ENDCHAR
STARTCHAR ibreve
ENCODING 301
SWIDTH 174 0
DWIDTH 2 0
BBX 2 6 0 0
BITMAP
13
51
60
61
54
35
ENDCHAR
STARTCHAR Iogonek
ENCODING 302
SWIDTH 167 0
DWIDTH 2 0
BBX 2 7 0 -2
BITMAP
60
70
61
43
55
81
23
ENDCHAR
STARTCHAR iogonek
ENCODING 303
SWIDTH 174 0
DWIDTH 2 0
BBX 3 8 -1 -2
BITMAP
0300
0100
0600
0610
0540
0650
1800
0330
ENDCHAR
STARTCHAR Idotaccent
ENCODING 304
SWIDTH 167 0
DWIDTH 2 0
BBX 3 7 -1 0
BITMAP
1500
0000
0600
0700
0610
0430
0250
ENDCHAR
STARTCHAR dotlessi
ENCODING 305
SWIDTH 174 0
DWIDTH 2 0
BBX 2 4 0 0
BITMAP
60
61
54
35
ENDCHAR
STARTCHAR Jcircumflex
ENCODING 308
SWIDTH 439 0
DWIDTH 4 0
BBX 5 9 0 0
BITMAP
002300
019B10
012210
001600
000800
100800
700700
250700
038600
ENDCHAR
STARTCHAR jcircumflex
ENCODING 309
SWIDTH 200 0
DWIDTH 2 0
BBX 4 11 -1 -4
BITMAP
0330
19B1
1110
0210
0360
0090
0090
0090
7080
8270
08A0
ENDCHAR
STARTCHAR Kcommaaccent
ENCODING 310
SWIDTH 468 0
DWIDTH 4 0
BBX 4 9 0 -3
BITMAP
1010
6370
7800
9400
7750
7048
0000
0360
0330
ENDCHAR
STARTCHAR kcommaaccent
ENCODING 311
SWIDTH 403 0
DWIDTH 4 0
BBX 4 9 0 -3
BITMAP
2000
7000
7270
8700
7600
7594
0000
0710
0600
ENDCHAR
STARTCHAR Lacute
ENCODING 313
SWIDTH 346 0
DWIDTH 3 0
BBX 3 7 0 0
BITMAP
0350
0300
5000
8000
8000
7000
6970
ENDCHAR
STARTCHAR lacute
ENCODING 314
SWIDTH 120 0
DWIDTH 1 0
BBX 3 7 -1 0
BITMAP
0710
1200
0700
0800
0900
0900
0700
ENDCHAR
STARTCHAR Lcommaaccent
ENCODING 315
SWIDTH 346 0
DWIDTH 3 0
BBX 3 8 0 -3
BITMAP
5000
8000
8000
7000
6970
0000
0800
0600
ENDCHAR
STARTCHAR lcommaaccent
ENCODING 316
SWIDTH 120 0
DWIDTH 1 0
BBX 1 8 0 -3
BITMAP
70
80
90
90
70
00
80
60
ENDCHAR
STARTCHAR Lcaron
ENCODING 317
SWIDTH 346 0
DWIDTH 3 0
BBX 3 7 0 0
BITMAP
0300
0610
5210
8000
8000
7000
6970
ENDCHAR
STARTCHAR lcaron
ENCODING 318
SWIDTH 222 0
DWIDTH 2 0
BBX 2 7 0 0
BITMAP
03
08
74
80
90
90
70
ENDCHAR
STARTCHAR Ldot
ENCODING 319
SWIDTH 346 0
DWIDTH 3 0
BBX 3 5 0 0
BITMAP
5000
8000
8700
7500
6970
ENDCHAR
STARTCHAR ldot
ENCODING 320
SWIDTH 333 0
DWIDTH 3 0
BBX 3 5 0 0
BITMAP
7000
8000
9340
9230
7000
ENDCHAR
STARTCHAR Lslash
ENCODING 321
SWIDTH 346 0
DWIDTH 3 0
BBX 4 5 0 0
BITMAP
2400
4400
6700
A200
2992
ENDCHAR
STARTCHAR lslash
ENCODING 322
SWIDTH 120 0
DWIDTH 1 0
BBX 3 6 -1 0
BITMAP
0100
0800
0930
3C10
1900
0600
ENDCHAR
STARTCHAR Nacute
ENCODING 323
SWIDTH 609 0
DWIDTH 5 0
BBX 6 6 0 0
BITMAP
006100
612130
9200A0
970072
763053
807970
ENDCHAR
STARTCHAR nacute
ENCODING 324
SWIDTH 459 0
DWIDTH 4 0
BBX 4 6 0 0
BITMAP
0530
0300
5892
A008
9008
5208
ENDCHAR
STARTCHAR Ncommaaccent
ENCODING 325
SWIDTH 609 0
DWIDTH 5 0
BBX 6 8 0 -3
BITMAP
600130
9200A0
970072
763053
807970
000000
008100
006000
ENDCHAR
STARTCHAR ncommaaccent
ENCODING 326
SWIDTH 459 0
DWIDTH 4 0
BBX 4 7 0 -3
BITMAP
5892
A008
9008
5208
0000
0350
0330
ENDCHAR
STARTCHAR Ncaron
ENCODING 327
SWIDTH 609 0
DWIDTH 5 0
BBX 6 7 0 0
BITMAP
023400
005300
600130
9200A0
970072
763053
807970
ENDCHAR
STARTCHAR ncaron
ENCODING 328
SWIDTH 459 0
DWIDTH 4 0
BBX 4 6 0 0
BITMAP
0431
0260
5892
A008
9008
5208
ENDCHAR
STARTCHAR napostrophe
ENCODING 329
SWIDTH 459 0
DWIDTH 4 0
BBX 4 6 0 0
BITMAP
2600
3400
5892
A008
9008
5208
ENDCHAR
STARTCHAR Omacron
ENCODING 332
SWIDTH 609 0
DWIDTH 5 0
BBX 6 6 0 0
BITMAP
038700
043000
645820
600090
710062
197760
ENDCHAR
STARTCHAR omacron
ENCODING 333
SWIDTH 487 0
DWIDTH 4 0
BBX 5 5 0 0
BITMAP
078200
289700
700710
700900
489600
ENDCHAR
STARTCHAR Obreve
ENCODING 334
SWIDTH 609 0
DWIDTH 5 0
BBX 6 6 0 0
BITMAP
002300
047100
645820
600090
710062
197760
ENDCHAR
STARTCHAR obreve
ENCODING 335
SWIDTH 487 0
DWIDTH 4 0
BBX 5 6 0 0
BITMAP
023000
032000
289700
700710
700900
489600
ENDCHAR
STARTCHAR Ohungarumlaut
ENCODING 336
SWIDTH 609 0
DWIDTH 5 0
BBX 6 6 0 0
BITMAP
037500
043000
645820
600090
710062
197760
ENDCHAR
STARTCHAR ohungarumlaut
ENCODING 337
SWIDTH 487 0
DWIDTH 4 0
BBX 5 5 0 0
BITMAP
088000
28A700
700710
700900
489600
ENDCHAR
STARTCHAR OE
ENCODING 338
SWIDTH 848 0
DWIDTH 8 0
BBX 8 5 0 0
BITMAP
04324330
647D2221
600B5550
71080000
198A6772
ENDCHAR
STARTCHAR oe
ENCODING 339
SWIDTH 875 0
DWIDTH 8 0
BBX 8 6 0 -1
BITMAP
00001400
17957370
710A2460
70096300
48978543
00000340
ENDCHAR
STARTCHAR Racute
ENCODING 340
SWIDTH 579 0
DWIDTH 5 0
BBX 5 8 0 -1
BITMAP
004300
57B600
420370
084860
0B5100
078100
051830
000040
ENDCHAR
STARTCHAR racute
ENCODING 341
SWIDTH 346 0
DWIDTH 3 0
BBX 3 6 0 0
BITMAP
0520
0300
8780
8000
8000
4300
ENDCHAR
STARTCHAR Rcommaaccent
ENCODING 342
SWIDTH 579 0
DWIDTH 5 0
BBX 5 9 0 -3
BITMAP
578600
420370
084860
0B5100
078100
051830
000040
008000
006000
ENDCHAR
STARTCHAR rcommaaccent
ENCODING 343
SWIDTH 346 0
DWIDTH 3 0
BBX 3 7 0 -3
BITMAP
8780
8000
8000
4300
0000
0800
0600
ENDCHAR
STARTCHAR Rcaron
ENCODING 344
SWIDTH 579 0
DWIDTH 5 0
BBX 5 9 0 -1
BITMAP
022400
006200
578600
420370
084860
0B5100
078100
051830
000040
ENDCHAR
STARTCHAR rcaron
ENCODING 345
SWIDTH 346 0
DWIDTH 3 0
BBX 3 6 0 0
BITMAP
2240
0620
8780
8000
8000
4300
ENDCHAR
STARTCHAR Sacute
ENCODING 346
SWIDTH 627 0
DWIDTH 6 0
BBX 6 8 0 -1
BITMAP
005300
018510
071160
065000
002850
800054
277782
000100
ENDCHAR
STARTCHAR sacute
ENCODING 347
SWIDTH 514 0
DWIDTH 5 0
BBX 5 6 0 0
BITMAP
007100
022000
678100
565200
102830
587920
ENDCHAR
STARTCHAR Scircumflex
ENCODING 348
SWIDTH 627 0
DWIDTH 6 0
BBX 6 9 0 -1
BITMAP
003200
019B00
026610
071160
065000
002850
800054
277782
000100
ENDCHAR
STARTCHAR scircumflex
ENCODING 349
SWIDTH 514 0
DWIDTH 5 0
BBX 5 7 0 0
BITMAP
005000
06A500
020200
678100
565200
102830
587920
ENDCHAR
STARTCHAR Scedilla
ENCODING 350
SWIDTH 627 0
DWIDTH 6 0
BBX 6 9 0 -3
BITMAP
015510
071160
065000
002850
800054
277782
025100
013800
017600
ENDCHAR
STARTCHAR scedilla
ENCODING 351
SWIDTH 514 0
DWIDTH 5 0
BBX 5 8 0 -3
BITMAP
010000
678100
565200
102830
587920
061000
025500
056300
ENDCHAR
STARTCHAR Scaron
ENCODING 352
SWIDTH 627 0
DWIDTH 6 0
BBX 6 8 0 -1
BITMAP
013400
01A910
071160
065000
002850
800054
277782
000100
ENDCHAR
STARTCHAR scaron
ENCODING 353
SWIDTH 514 0
DWIDTH 5 0
BBX 5 6 0 0
BITMAP
042300
017100
678100
565200
102830
587920
ENDCHAR
STARTCHAR Tcommaaccent
ENCODING 354
SWIDTH 581 0
DWIDTH 5 0
BBX 6 9 0 -3
BITMAP
221000
469977
002500
001700
000800
000900
000000
000800
000600
ENDCHAR
STARTCHAR tcommaaccent
ENCODING 355
SWIDTH 328 0
DWIDTH 3 0
BBX 3 9 0 -3
BITMAP
0800
0900
6C60
0900
0900
0600
0000
0800
0600
ENDCHAR
STARTCHAR Tcaron
ENCODING 356
SWIDTH 581 0
DWIDTH 5 0
BBX 6 7 0 0
BITMAP
022400
227200
469977
002500
001700
000800
000900
ENDCHAR
STARTCHAR tcaron
ENCODING 357
SWIDTH 431 0
DWIDTH 4 0
BBX 4 7 0 0
BITMAP
0003
0808
0904
6C60
0900
0900
0600
ENDCHAR
STARTCHAR Utilde
ENCODING 360
SWIDTH 571 0
DWIDTH 5 0
BBX 5 6 0 0
BITMAP
076710
620410
600530
600260
6104B0
199560
ENDCHAR
STARTCHAR utilde
ENCODING 361
SWIDTH 501 0
DWIDTH 5 0
BBX 5 7 0 -1
BITMAP
176600
010000
600300
700900
701C00
298630
000010
ENDCHAR
STARTCHAR Umacron
ENCODING 362
SWIDTH 571 0
DWIDTH 5 0
BBX 5 6 0 0
BITMAP
048500
600410
600530
600260
6104B0
199560
ENDCHAR
STARTCHAR umacron
ENCODING 363
SWIDTH 501 0
DWIDTH 5 0
BBX 5 7 0 -1
BITMAP
088100
000000
600300
700900
701C00
298630
000010
ENDCHAR
STARTCHAR Ubreve
ENCODING 364
SWIDTH 571 0
DWIDTH 5 0
BBX 5 6 0 0
BITMAP
011300
605410
600530
600260
6104B0
199560
ENDCHAR
STARTCHAR ubreve
ENCODING 365
SWIDTH 501 0
DWIDTH 5 0
BBX 5 7 0 -1
BITMAP
023000
033000
600300
700900
701C00
298630
000010
ENDCHAR
STARTCHAR Uring
ENCODING 366
SWIDTH 571 0
DWIDTH 5 0
BBX 5 7 0 0
BITMAP
001000
035300
614410
600530
600260
6104B0
199560
ENDCHAR
STARTCHAR uring
ENCODING 367
SWIDTH 501 0
DWIDTH 5 0
BBX 5 7 0 -1
BITMAP
001000
057000
623300
700900
701C00
298630
000010
ENDCHAR
STARTCHAR Uhungarumlaut
ENCODING 368
SWIDTH 571 0
DWIDTH 5 0
BBX 5 6 0 0
BITMAP
057300
601410
600530
600260
6104B0
199560
ENDCHAR
STARTCHAR uhungarumlaut
ENCODING 369
SWIDTH 501 0
DWIDTH 5 0
BBX 5 7 0 -1
BITMAP
057300
001000
600300
700900
701C00
298630
000010
ENDCHAR
STARTCHAR Uogonek
ENCODING 370
SWIDTH 571 0
DWIDTH 5 0
BBX 6 7 0 -2
BITMAP
310110
600450
600260
6100A0
2948C1
025450
000152
ENDCHAR
STARTCHAR uogonek
ENCODING 371
SWIDTH 501 0
DWIDTH 5 0
BBX 5 7 0 -2
BITMAP
100000
700600
700900
623C00
076740
000920
000110
ENDCHAR
STARTCHAR Wcircumflex
ENCODING 372
SWIDTH 703 0
DWIDTH 6 0
BBX 7 8 0 0
BITMAP
00050000
007B3000
00101000
20000200
80000A00
80500810
80950610
39579700
ENDCHAR
STARTCHAR wcircumflex
ENCODING 373
SWIDTH 656 0
DWIDTH 6 0
BBX 6 7 0 0
BITMAP
002300
019B10
011110
500010
703316
705608
399894
ENDCHAR
STARTCHAR Ycircumflex
ENCODING 374
SWIDTH 403 0
DWIDTH 4 0
BBX 4 8 0 0
BITMAP
0320
19B0
6123
6435
06C1
0080
0250
0340
ENDCHAR
STARTCHAR ycircumflex
ENCODING 375
SWIDTH 487 0
DWIDTH 4 0
BBX 5 12 0 -5
BITMAP
005000
07A300
020100
400500
700700
610920
078730
000330
000430
300610
394800
015100
ENDCHAR
STARTCHAR Ydieresis
ENCODING 376
SWIDTH 403 0
DWIDTH 4 0
BBX 4 7 0 0
BITMAP
2580
5113
6435
06C1
0080
0250
0340
ENDCHAR
STARTCHAR Zacute
ENCODING 377
SWIDTH 571 0
DWIDTH 5 0
BBX 5 8 0 0
BITMAP
006200
003000
576000
102600
001700
07C940
016000
069980
ENDCHAR
STARTCHAR zacute
ENCODING 378
SWIDTH 459 0
DWIDTH 4 0
BBX 4 6 0 0
BITMAP
0440
5A60
2070
47B2
1A10
2C97
ENDCHAR
STARTCHAR Zdotaccent
ENCODING 379
SWIDTH 571 0
DWIDTH 5 0
BBX 5 7 0 0
BITMAP
024000
576000
102600
001700
07C940
016000
069980
ENDCHAR
STARTCHAR zdotaccent
ENCODING 380
SWIDTH 459 0
DWIDTH 4 0
BBX 4 6 0 0
BITMAP
0140
5760
2070
47B2
1A10
2C97
ENDCHAR
STARTCHAR Zcaron
ENCODING 381
SWIDTH 571 0
DWIDTH 5 0
BBX 5 8 0 0
BITMAP
042300
017000
576000
102600
001700
07C940
016000
069980
ENDCHAR
STARTCHAR zcaron
ENCODING 382
SWIDTH 459 0
DWIDTH 4 0
BBX 4 7 0 0
BITMAP
2240
0530
5760
2070
47B2
1A10
2C97
ENDCHAR
STARTCHAR florin
ENCODING 402
SWIDTH 376 0
DWIDTH 3 0
BBX 5 10 -1 -3
BITMAP
001410
009490
017000
026000
07B700
008000
008000
217000
576000
021000
ENDCHAR
STARTCHAR AEacute
ENCODING 508
SWIDTH 960 0
DWIDTH 9 0
BBX 9 8 0 0
BITMAP
0000520000
0675300000
4206687610
5001D00000
6000D46600
9656B21000
7000800000
5200A8AA30
ENDCHAR
STARTCHAR aeacute
ENCODING 509
SWIDTH 881 0
DWIDTH 8 0
BBX 8 7 0 -1
BITMAP
00016000
04432610
01477170
387D4560
70066200
58989763
00000220
ENDCHAR
STARTCHAR Oslashacute
ENCODING 510
SWIDTH 609 0
DWIDTH 5 0
BBX 6 8 0 -1
BITMAP
001100
008000
043300
645C20
605290
717062
19B760
050000
ENDCHAR
STARTCHAR oslashacute
ENCODING 511
SWIDTH 487 0
DWIDTH 4 0
BBX 5 6 0 0
BITMAP
002000
035000
179700
715B00
728810
4C9600
ENDCHAR
STARTCHAR Scommaaccent
ENCODING 536
SWIDTH 627 0
DWIDTH 6 0
BBX 6 9 0 -3
BITMAP
015510
071160
065000
002850
800054
277782
000100
008000
006000
ENDCHAR
STARTCHAR scommaaccent
ENCODING 537
SWIDTH 514 0
DWIDTH 5 0
BBX 5 8 0 -3
BITMAP
010000
678100
565200
102830
587920
000000
008000
006000
ENDCHAR
STARTCHAR circumflex
ENCODING 710
SWIDTH 375 0
DWIDTH 3 0
BBX 3 3 0 4
BITMAP
0410
2990
1020
ENDCHAR
STARTCHAR caron
ENCODING 711
SWIDTH 375 0
DWIDTH 3 0
BBX 3 2 0 4
BITMAP
2240
0620
ENDCHAR
STARTCHAR breve
ENCODING 728
SWIDTH 224 0
DWIDTH 2 0
BBX 2 2 0 3
BITMAP
23
33
ENDCHAR
STARTCHAR dotaccent
ENCODING 729
SWIDTH 152 0
DWIDTH 1 0
BBX 1 1 0 4
BITMAP
50
ENDCHAR
STARTCHAR ring
ENCODING 730
SWIDTH 333 0
DWIDTH 3 0
BBX 3 3 0 3
BITMAP
0100
1550
0410
ENDCHAR
STARTCHAR ogonek
ENCODING 731
SWIDTH 254 0
DWIDTH 2 0
BBX 2 3 0 -2
BITMAP
12
81
25
ENDCHAR
STARTCHAR tilde
ENCODING 732
SWIDTH 402 0
DWIDTH 4 0
BBX 4 2 0 3
BITMAP
6672
2010
ENDCHAR
STARTCHAR hungarumlaut
ENCODING 733
SWIDTH 264 0
DWIDTH 2 0
BBX 3 2 0 3
BITMAP
7720
0100
ENDCHAR
STARTCHAR Wgrave
ENCODING 7808
SWIDTH 703 0
DWIDTH 6 0
BBX 7 6 0 0
BITMAP
00270000
20000200
80000A00
80500810
80950610
39579700
ENDCHAR
STARTCHAR wgrave
ENCODING 7809
SWIDTH 656 0
DWIDTH 6 0
BBX 6 5 0 0
BITMAP
003500
500010
703316
705608
399894
ENDCHAR
STARTCHAR Wacute
ENCODING 7810
SWIDTH 703 0
DWIDTH 6 0
BBX 7 6 0 0
BITMAP
00350000
20300200
80000A00
80500810
80950610
39579700
ENDCHAR
STARTCHAR wacute
ENCODING 7811
SWIDTH 656 0
DWIDTH 6 0
BBX 6 6 0 0
BITMAP
003400
003000
500010
703316
705608
399894
ENDCHAR
STARTCHAR Wdieresis
ENCODING 7812
SWIDTH 703 0
DWIDTH 6 0
BBX 7 6 0 0
BITMAP
00852000
20110200
80000A00
80500810
80950610
39579700
ENDCHAR
STARTCHAR wdieresis
ENCODING 7813
SWIDTH 656 0
DWIDTH 6 0
BBX 6 5 0 0
BITMAP
016700
501110
703316
705608
399894
ENDCHAR
STARTCHAR Ygrave
ENCODING 7922
SWIDTH 403 0
DWIDTH 4 0
BBX 4 7 0 0
BITMAP
0630
5003
6435
06C1
0080
0250
0340
ENDCHAR
STARTCHAR ygrave
ENCODING 7923
SWIDTH 487 0
DWIDTH 4 0
BBX 5 10 0 -5
BITMAP
027000
400500
700700
610920
078730
000330
000430
300610
394800
015100
ENDCHAR
STARTCHAR endash
ENCODING 8211
SWIDTH 287 0
DWIDTH 3 0
BBX 3 1 0 2
BITMAP
7830
ENDCHAR
STARTCHAR emdash
ENCODING 8212
SWIDTH 512 0
DWIDTH 5 0
BBX 5 1 0 2
BITMAP
588820
ENDCHAR
STARTCHAR quoteleft
ENCODING 8216
SWIDTH 102 0
DWIDTH 1 0
BBX 1 3 0 4
BITMAP
30
80
40
ENDCHAR
STARTCHAR quoteright
ENCODING 8217
SWIDTH 102 0
DWIDTH 1 0
BBX 1 3 0 4
BITMAP
30
80
40
ENDCHAR
STARTCHAR quotesinglbase
ENCODING 8218
SWIDTH 102 0
DWIDTH 1 0
BBX 1 3 0 -1
BITMAP
50
80
10
ENDCHAR
STARTCHAR quotedblleft
ENCODING 8220
SWIDTH 234 0
DWIDTH 2 0
BBX 2 4 0 4
BITMAP
01
67
88
34
ENDCHAR
STARTCHAR quotedblright
ENCODING 8221
SWIDTH 234 0
DWIDTH 2 0
BBX 2 4 0 4
BITMAP
01
67
88
34
ENDCHAR
STARTCHAR quotedblbase
ENCODING 8222
SWIDTH 341 0
DWIDTH 3 0
BBX 3 3 0 -1
BITMAP
2220
4650
1760
ENDCHAR
STARTCHAR dagger
ENCODING 8224
SWIDTH 375 0
DWIDTH 3 0
BBX 3 6 0 0
BITMAP
0400
0600
6B80
0610
0620
0520
ENDCHAR
STARTCHAR daggerdbl
ENCODING 8225
SWIDTH 375 0
DWIDTH 3 0
BBX 5 7 -1 0
BITMAP
005000
008000
149530
148440
279730
005100
005200
ENDCHAR
STARTCHAR bullet
ENCODING 8226
SWIDTH 341 0
DWIDTH 3 0
BBX 2 3 1 1
BITMAP
10
E6
62
ENDCHAR
STARTCHAR ellipsis
ENCODING 8230
SWIDTH 612 0
DWIDTH 6 0
BBX 6 2 0 0
BITMAP
446271
77A4C2
ENDCHAR
STARTCHAR guilsinglleft
ENCODING 8249
SWIDTH 487 0
DWIDTH 4 0
BBX 4 4 0 0
BITMAP
0016
0381
6500
5886
ENDCHAR
STARTCHAR guilsinglright
ENCODING 8250
SWIDTH 403 0
DWIDTH 4 0
BBX 4 5 0 0
BITMAP
1000
5841
0077
0580
6500
ENDCHAR
STARTCHAR fraction
ENCODING 8260
SWIDTH 309 0
DWIDTH 3 0
BBX 3 7 0 0
BITMAP
0040
0160
0520
0800
1700
7200
7000
ENDCHAR
STARTCHAR Euro
ENCODING 8364
SWIDTH 741 0
DWIDTH 7 0
BBX 7 7 0 0
BITMAP
00001200
00056400
68AB7000
11611000
6A863000
04200000
00888820
ENDCHAR
STARTCHAR trademark
ENCODING 8482
SWIDTH 1116 0
DWIDTH 10 0
BBX 10 6 0 0
BITMAP
5776450013
0045388066
0025039996
0017044017
0008044009
000A033009
ENDCHAR
STARTCHAR minus
ENCODING 8722
SWIDTH 287 0
DWIDTH 3 0
BBX 3 1 0 2
BITMAP
7830
ENDCHAR
STARTCHAR commaaccent
ENCODING 63171
SWIDTH 375 0
DWIDTH 3 0
BBX 1 2 1 -3
BITMAP
80
60
ENDCHAR
STARTCHAR fi
ENCODING 64257
SWIDTH 551 0
DWIDTH 5 0
BBX 4 8 0 -1
BITMAP
0141
0859
1521
2605
7C88
0819
0289
0001
ENDCHAR
STARTCHAR fl
ENCODING 64258
SWIDTH 723 0
DWIDTH 7 0
BBX 4 7 0 0
BITMAP
0141
0849
1525
2626
7C97
0847
0296
ENDCHAR
STARTCHAR .notdef
ENCODING -1
SWIDTH 375 0
DWIDTH 3 0
BBX 1 1 0 0
BITMAP
00
ENDCHAR
STARTCHAR .null
ENCODING -1
SWIDTH 0 0
DWIDTH 0 0
BBX 1 1 0 0
BITMAP
00
ENDCHAR
STARTCHAR nonmarkingreturn
ENCODING -1
SWIDTH 375 0
DWIDTH 3 0
BBX 1 1 0 0
BITMAP
00
ENDCHAR
ENDFONT
